<svg width="74" height="63" viewBox="0 0 74 63" fill="none" xmlns="http://www.w3.org/2000/svg">
<path d="M54.6825 62.9145C53.2794 62.778 51.8762 62.6416 50.4731 62.4662C49.3623 62.3298 48.271 62.1155 47.1212 61.9206C47.5305 59.7964 47.9202 57.7697 48.31 55.743C48.9531 52.4106 49.6157 49.0587 50.2588 45.7263C50.3172 45.4145 50.3172 45.0248 50.1613 44.7519C50.0639 44.5571 49.5767 44.3427 49.4598 44.4207C49.148 44.6155 48.7972 44.9468 48.7192 45.2781C48.3685 46.8176 48.0956 48.3767 47.8033 49.9357C47.0823 53.6383 46.3612 57.341 45.6402 61.0242C45.6207 61.1606 45.5622 61.297 45.5233 61.4724C44.0227 61.0436 42.6196 60.537 41.3919 59.621C40.5734 59.0169 40.2031 58.1984 40.2031 57.1656C40.2811 46.5838 43.2042 36.8789 49.031 28.051C49.3234 27.6223 49.6157 27.4469 50.1418 27.4469C54.7994 27.4664 59.4375 27.4664 64.095 27.4469C64.5822 27.4469 64.894 27.5833 65.1668 28.012C69.5516 34.6184 72.3578 41.8483 73.4491 49.7018C73.7999 52.2157 73.8388 54.7881 73.9948 57.341C74.0532 58.2959 73.6245 59.0169 72.8839 59.6016C71.6757 60.537 70.2531 61.0242 68.6941 61.5113C68.4602 60.3226 68.2069 59.1533 67.9925 58.0036C67.1936 53.8722 66.3946 49.7408 65.5956 45.6094C65.4202 44.674 65.0889 44.3037 64.5432 44.4012C63.9781 44.5181 63.8222 44.9273 64.0171 45.9017C65.0499 51.2024 66.0633 56.503 67.1156 61.9401C66.0048 62.1155 64.933 62.3298 63.8417 62.4857C62.4386 62.6611 61.0354 62.778 59.6518 62.9339C59.0672 62.9339 58.4826 62.9339 57.8979 62.9339C57.8979 57.2435 57.9174 51.5531 57.9174 45.8433C57.9174 44.7909 57.6836 44.3817 57.1184 44.3817C56.5338 44.3817 56.2999 44.8104 56.2999 45.8238C56.2999 51.5142 56.2805 57.2241 56.2805 62.9145C55.7543 62.9145 55.2086 62.9145 54.6825 62.9145Z" fill="url(#paint0_linear_69_41)"/>
<path d="M0.0194874 21.2499C0.175389 21.055 0.350778 20.8601 0.487192 20.6263C3.93651 14.9553 7.4248 9.28444 10.8351 3.59404C11.3418 2.75607 11.9654 2.24939 12.9203 1.97656C13.0373 2.24939 13.1737 2.52222 13.3101 2.81453C15.3368 7.35516 17.344 11.8763 19.3707 16.4169C19.4097 16.5144 19.4292 16.6118 19.4877 16.6703C19.741 16.9041 20.0333 17.2939 20.2867 17.2744C20.579 17.2549 20.9882 16.9431 21.1246 16.6508C22.0211 14.741 22.859 12.7922 23.7165 10.8629C25.0417 7.9203 26.3473 4.95818 27.6725 1.97656C28.5494 2.24939 29.212 2.67812 29.6992 3.4966C33.1485 9.22598 36.6368 14.9359 40.1251 20.6652C40.2615 20.8991 40.3785 21.1135 40.5538 21.4058C39.1118 22.2632 37.7086 23.1207 36.2276 23.9976C33.8891 20.217 31.5895 16.4754 29.173 12.5584C28.9977 14.1369 28.8612 15.501 28.7053 16.8457C28.491 18.8529 28.2571 20.8601 28.1012 22.8673C28.0622 23.4325 28.1597 24.0366 28.3351 24.5628C28.9392 26.3751 29.6213 28.1875 30.2644 29.9998C30.3228 30.1752 30.3618 30.3701 30.4397 30.6429C29.9331 30.6429 29.5043 30.6429 29.0756 30.6429C26.932 30.6429 24.7883 30.6234 22.6447 30.6624C22.0795 30.6819 21.7482 30.487 21.4949 29.9998C21.1441 29.3372 20.7349 28.7136 20.2867 27.9926C19.7995 28.7916 19.4097 29.5126 18.942 30.1752C18.7861 30.3896 18.4743 30.6234 18.221 30.6429C15.6486 30.6819 13.0567 30.6624 10.4844 30.6624C10.3869 30.6624 10.309 30.6234 10.1336 30.5845C10.27 30.1752 10.3869 29.7855 10.5233 29.3957C10.8351 28.4993 11.0885 27.5834 11.4977 26.7259C12.4916 24.6212 12.6085 22.4776 12.2577 20.1975C11.907 17.9175 11.7511 15.5984 11.5172 13.2989C11.4977 13.143 11.4587 12.9676 11.3808 12.6363C8.98382 16.4949 6.68427 20.2365 4.36524 23.9976C2.86469 23.1012 1.4226 22.2632 0 21.4058C0.0194877 21.3473 0.0194874 21.3083 0.0194874 21.2499ZM21.4949 19.9442C21.4754 19.2816 20.9298 18.7554 20.2672 18.7749C19.6046 18.7944 19.0979 19.3206 19.0979 20.0027C19.1174 20.6847 19.6436 21.1914 20.3062 21.1719C21.0077 21.1524 21.5144 20.6068 21.4949 19.9442ZM21.4949 24.8551C21.5144 24.1925 20.9882 23.6274 20.3451 23.6079C19.6825 23.5884 19.1369 24.1146 19.1174 24.7771C19.0979 25.4397 19.6046 26.0049 20.2672 26.0243C20.9103 26.0438 21.4949 25.5177 21.4949 24.8551Z" fill="url(#paint1_linear_69_41)"/>
<path d="M11.7122 62.9145C11.7122 52.7419 11.7122 42.5693 11.7122 32.2799C12.1409 32.2799 12.5112 32.2799 12.9009 32.2799C14.5768 32.2799 16.2528 32.2604 17.9482 32.2993C18.5328 32.3188 18.9031 32.1434 19.2344 31.6757C19.5462 31.208 19.9165 30.7988 20.3257 30.2921C20.7349 30.7793 21.1442 31.2275 21.4755 31.7342C21.7678 32.1629 22.1186 32.3188 22.6253 32.2993C24.4181 32.2799 26.2305 32.2799 28.0233 32.2799C28.2962 32.2799 28.5495 32.2799 28.9198 32.2799C28.9198 32.6501 28.9198 32.9619 28.9198 33.2542C28.9198 42.8227 28.9198 52.3911 28.9198 61.9596C28.9198 62.2714 28.9393 62.5832 28.9587 62.9145C26.971 62.9145 24.9638 62.9145 22.9565 62.9145C22.7422 60.537 22.5473 58.1595 22.3135 55.8015C21.8068 50.4034 21.2806 45.0053 20.7544 39.6072C20.6375 38.321 20.5011 37.0154 20.3647 35.7292C19.9749 38.4185 19.7021 41.0883 19.4488 43.7581C18.9811 48.6495 18.4939 53.5409 18.0457 58.4323C17.9092 59.9329 17.8118 61.4334 17.6949 62.934C15.7071 62.9145 13.6999 62.9145 11.7122 62.9145Z" fill="url(#paint2_linear_69_41)"/>
<path d="M53.1818 0.0472412C53.1818 1.85959 53.2208 3.55502 53.1623 5.26993C53.1428 5.93252 53.3572 6.40022 53.8054 6.86793C54.8967 7.97872 55.9296 9.12849 57.0404 10.2978C58.2876 8.9531 59.5153 7.66692 60.7041 6.36125C60.86 6.18586 60.9184 5.83508 60.9184 5.56225C60.9379 3.76938 60.9184 1.95703 60.9184 0.0667271C62.2241 0.0667271 63.4713 0.0667271 64.738 0.0667271C66.2775 0.0667271 66.2775 0.0667271 66.8037 1.5283C68.0314 4.88018 68.1094 8.29052 67.0375 11.7009C66.375 13.786 65.6344 15.8517 64.9718 17.9369C64.8354 18.3657 64.66 18.5021 64.2118 18.5021C59.4568 18.4826 54.7213 18.5021 49.9663 18.4826C49.752 18.4826 49.3817 18.2877 49.3233 18.0928C48.4268 15.423 47.4524 12.7727 46.7509 10.0444C45.9324 6.86792 46.3806 3.71092 47.6473 0.690332C47.8227 0.242116 48.0566 0.0667271 48.5632 0.0667271C50.0833 0.0667271 51.5838 0.0472412 53.1818 0.0472412Z" fill="url(#paint3_linear_69_41)"/>
<path d="M20.3062 14.5461C18.2795 10.025 16.3502 5.65975 14.382 1.23605C15.5122 0.748853 16.4671 -0.0696295 17.8118 0.00832115C19.3903 0.0862718 20.9883 0.10576 22.5473 0.00832115C23.9699 -0.0891172 25.0222 0.69039 26.2499 1.23605C24.2817 5.65975 22.3329 10.0055 20.3062 14.5461Z" fill="url(#paint4_linear_69_41)"/>
<path d="M64.7575 20.1001C64.7575 22.0294 64.7575 23.8807 64.7575 25.7905C59.6712 25.7905 54.6044 25.7905 49.4987 25.7905C49.4987 23.9002 49.4987 22.0099 49.4987 20.1001C54.5655 20.1001 59.6322 20.1001 64.7575 20.1001Z" fill="url(#paint5_linear_69_41)"/>
<defs>
<linearGradient id="paint0_linear_69_41" x1="36.5647" y1="11.2089" x2="69.2064" y2="71.7405" gradientUnits="userSpaceOnUse">
<stop stop-color="#D5AC8D"/>
<stop offset="0.5" stop-color="#E8C892"/>
<stop offset="1" stop-color="#D5AC8D"/>
</linearGradient>
<linearGradient id="paint1_linear_69_41" x1="-4.36584" y1="-11.1516" x2="15.9094" y2="44.6515" gradientUnits="userSpaceOnUse">
<stop stop-color="#D5AC8D"/>
<stop offset="0.5" stop-color="#E8C892"/>
<stop offset="1" stop-color="#D5AC8D"/>
</linearGradient>
<linearGradient id="paint2_linear_69_41" x1="9.85547" y1="15.356" x2="45.7756" y2="52.3106" gradientUnits="userSpaceOnUse">
<stop stop-color="#D5AC8D"/>
<stop offset="0.5" stop-color="#E8C892"/>
<stop offset="1" stop-color="#D5AC8D"/>
</linearGradient>
<linearGradient id="paint3_linear_69_41" x1="44.0285" y1="-8.39724" x2="59.0501" y2="25.5981" gradientUnits="userSpaceOnUse">
<stop stop-color="#D5AC8D"/>
<stop offset="0.5" stop-color="#E8C892"/>
<stop offset="1" stop-color="#D5AC8D"/>
</linearGradient>
<linearGradient id="paint4_linear_69_41" x1="13.1043" y1="-6.65595" x2="27.5431" y2="16.2824" gradientUnits="userSpaceOnUse">
<stop stop-color="#D5AC8D"/>
<stop offset="0.5" stop-color="#E8C892"/>
<stop offset="1" stop-color="#D5AC8D"/>
</linearGradient>
<linearGradient id="paint5_linear_69_41" x1="47.856" y1="17.4963" x2="50.1706" y2="29.5819" gradientUnits="userSpaceOnUse">
<stop stop-color="#D5AC8D"/>
<stop offset="0.5" stop-color="#E8C892"/>
<stop offset="1" stop-color="#D5AC8D"/>
</linearGradient>
</defs>
</svg>
