<svg width="58" height="58" viewBox="0 0 58 58" fill="none" xmlns="http://www.w3.org/2000/svg">
<path d="M8.7 29H5.8V52.2C5.8 53.7383 6.41107 55.2135 7.49878 56.3012C8.58649 57.3889 10.0617 58 11.6 58H26.1V29H8.7ZM46.4 29H31.9V58H46.4C47.9383 58 49.4135 57.3889 50.5012 56.3012C51.5889 55.2135 52.2 53.7383 52.2 52.2V29H46.4ZM48.6939 14.5C49.1192 13.09 49.3237 11.6226 49.3 10.15C49.3 4.553 44.747 0 39.15 0C34.4462 0 31.3055 4.2978 29.2784 8.9465C27.2803 4.553 23.9801 0 18.85 0C13.253 0 8.7 4.553 8.7 10.15C8.7 11.8784 8.9291 13.3081 9.3061 14.5H0V26.1H26.1V20.3H31.9V26.1H58V14.5H48.6939ZM14.5 10.15C14.5 7.7517 16.4517 5.8 18.85 5.8C21.4252 5.8 23.8206 10.2225 25.2242 14.5H17.4C16.3154 14.5 14.5 14.5 14.5 10.15ZM39.15 5.8C41.5483 5.8 43.5 7.7517 43.5 10.15C43.5 14.5 41.6846 14.5 40.6 14.5H33.4167C34.8957 9.9296 37.0446 5.8 39.15 5.8Z" fill="url(#paint0_linear_34_10168)"/>
<defs>
<linearGradient id="paint0_linear_34_10168" x1="-6.24402" y1="-26.5394" x2="45.6519" y2="74.5102" gradientUnits="userSpaceOnUse">
<stop stop-color="#D5AC8D"/>
<stop offset="0.5" stop-color="#E8C892"/>
<stop offset="1" stop-color="#D5AC8D"/>
</linearGradient>
</defs>
</svg>
