<svg width="40" height="40" viewBox="0 0 40 40" fill="none" xmlns="http://www.w3.org/2000/svg">
<path d="M11.6667 5C7.06504 5 3.33337 8.69333 3.33337 13.25C3.33337 16.9283 4.79171 25.6583 19.1467 34.4833C19.4038 34.6398 19.699 34.7225 20 34.7225C20.301 34.7225 20.5962 34.6398 20.8534 34.4833C35.2084 25.6583 36.6667 16.9283 36.6667 13.25C36.6667 8.69333 32.935 5 28.3334 5C23.7317 5 20 10 20 10C20 10 16.2684 5 11.6667 5Z" stroke="#5E5433" stroke-width="2.42424" stroke-linecap="round" stroke-linejoin="round"/>
<path d="M21.506 15.4832C21.7181 15.2813 22.0003 15.1697 22.2932 15.1719C22.586 15.1741 22.8665 15.29 23.0756 15.4951C23.2846 15.7002 23.4058 15.9785 23.4135 16.2713C23.4212 16.564 23.3149 16.8483 23.1171 17.0642L17.1094 24.5776C17.0061 24.6889 16.8814 24.7781 16.7428 24.8401C16.6042 24.9021 16.4545 24.9355 16.3027 24.9383C16.1509 24.9411 16.0001 24.9133 15.8593 24.8565C15.7185 24.7997 15.5906 24.7151 15.4832 24.6077L11.4992 20.6237C11.3882 20.5203 11.2993 20.3956 11.2375 20.2571C11.1758 20.1186 11.1426 19.969 11.1399 19.8174C11.1373 19.6658 11.1652 19.5152 11.222 19.3745C11.2788 19.2339 11.3633 19.1062 11.4705 18.999C11.5778 18.8917 11.7055 18.8072 11.8461 18.7504C11.9867 18.6936 12.1373 18.6657 12.289 18.6684C12.4406 18.6711 12.5901 18.7043 12.7286 18.766C12.8672 18.8277 12.9918 18.9167 13.0952 19.0276L16.2481 22.179L21.4759 15.5164C21.4852 15.5047 21.4953 15.4937 21.506 15.4832ZM20.1207 23.2225L21.506 24.6077C21.6133 24.7148 21.7411 24.7993 21.8818 24.8559C22.0224 24.9126 22.1731 24.9403 22.3247 24.9375C22.4763 24.9347 22.6258 24.9014 22.7643 24.8396C22.9027 24.7777 23.0273 24.6886 23.1306 24.5776L29.1413 17.0642C29.2493 16.9576 29.3347 16.8304 29.3924 16.69C29.4501 16.5497 29.4789 16.3992 29.4771 16.2474C29.4753 16.0957 29.443 15.9459 29.3821 15.807C29.3211 15.668 29.2328 15.5428 29.1223 15.4387C29.0119 15.3347 28.8817 15.2539 28.7393 15.2013C28.597 15.1488 28.4455 15.1254 28.294 15.1326C28.1424 15.1399 27.9939 15.1776 27.8572 15.2435C27.7206 15.3095 27.5986 15.4023 27.4986 15.5164L22.2694 22.179L21.5391 21.4473L20.1192 23.2225H20.1207Z" fill="#5E5433"/>
</svg>
