<svg width="30" height="24" viewBox="0 0 30 24" fill="none" xmlns="http://www.w3.org/2000/svg">
<path d="M27.285 0H3C1.35 0 0.015 1.35 0.015 3V9C1.665 9 3 10.35 3 12C3 13.65 1.665 15 0 15V21C0 22.65 1.35 24 3 24H27C28.65 24 30 22.65 30 21V3C30 1.35 28.785 0 27.285 0ZM27 21H3V17.19C4.785 16.155 6 14.205 6 12C6 9.78 4.8 7.845 3.015 6.81L3 3H27V21ZM10.305 17.49L7.815 13.17L9.21 12.795L11.1 14.28L14.685 13.32L11.085 7.08L13.185 6.51L19.2 12.12L22.86 11.145C23.2299 11.0472 23.6235 11.0995 23.955 11.2906C24.2865 11.4816 24.5292 11.7959 24.63 12.165C24.7233 12.5387 24.6674 12.934 24.4742 13.2672C24.281 13.6004 23.9656 13.8453 23.595 13.95L10.305 17.49Z" fill="#5E5433"/>
</svg>
